<svg width="1180" height="720" viewBox="0 0 1180 720" fill="none" xmlns="http://www.w3.org/2000/svg" role="img" aria-labelledby="title desc">
  <title id="title">kis-folio terminal dashboard preview</title>
  <desc id="desc">A preview of the kis-folio TUI showing overview, decision board, holdings, agents, report, and generated files tabs.</desc>
  <defs>
    <linearGradient id="bg" x1="0" y1="0" x2="1180" y2="720" gradientUnits="userSpaceOnUse">
      <stop stop-color="#101820"/>
      <stop offset="0.54" stop-color="#13251F"/>
      <stop offset="1" stop-color="#1C1B27"/>
    </linearGradient>
    <linearGradient id="panel" x1="70" y1="82" x2="1110" y2="642" gradientUnits="userSpaceOnUse">
      <stop stop-color="#17212B"/>
      <stop offset="1" stop-color="#111719"/>
    </linearGradient>
    <filter id="shadow" x="30" y="52" width="1120" height="640" color-interpolation-filters="sRGB" filterUnits="userSpaceOnUse">
      <feDropShadow dx="0" dy="22" flood-color="#000000" flood-opacity="0.35" stdDeviation="22"/>
    </filter>
    <style>
      .title { fill: #ECFDF5; font: 700 30px ui-sans-serif, system-ui, -apple-system, BlinkMacSystemFont, "Segoe UI", sans-serif; }
      .mono { font: 500 17px ui-monospace, SFMono-Regular, Menlo, Consolas, monospace; }
      .small { font: 500 14px ui-monospace, SFMono-Regular, Menlo, Consolas, monospace; }
      .muted { fill: #8EA3A2; }
      .text { fill: #DCE8E5; }
      .green { fill: #6EE7B7; }
      .yellow { fill: #FCD34D; }
      .red { fill: #FDA4AF; }
      .cyan { fill: #67E8F9; }
      .line { stroke: #2E4745; stroke-width: 1; }
    </style>
  </defs>

  <rect width="1180" height="720" rx="28" fill="url(#bg)"/>
  <g filter="url(#shadow)">
    <rect x="70" y="80" width="1040" height="560" rx="16" fill="url(#panel)" stroke="#33514E"/>
    <rect x="70" y="80" width="1040" height="46" rx="16" fill="#22312E"/>
    <circle cx="100" cy="103" r="7" fill="#FDA4AF"/>
    <circle cx="124" cy="103" r="7" fill="#FCD34D"/>
    <circle cx="148" cy="103" r="7" fill="#6EE7B7"/>
    <text x="182" y="110" class="small muted">folio tui --mock</text>
  </g>

  <text x="98" y="168" class="title">kis-folio</text>
  <text x="254" y="167" class="mono muted">local-first portfolio command center</text>

  <g transform="translate(96 196)">
    <rect width="988" height="34" rx="8" fill="#203631"/>
    <text x="18" y="23" class="small text">Overview</text>
    <text x="118" y="23" class="small green">Decision</text>
    <text x="222" y="23" class="small text">Holdings</text>
    <text x="332" y="23" class="small text">Agents</text>
    <text x="426" y="23" class="small text">Report</text>
    <text x="516" y="23" class="small text">Files</text>
    <text x="760" y="23" class="small muted">r reload  a agent report  q quit</text>
  </g>

  <g transform="translate(96 254)">
    <rect width="988" height="336" rx="10" fill="#121C1B" stroke="#365B55"/>
    <text x="22" y="34" class="mono green">LLM Decision Board</text>
    <text x="22" y="66" class="small muted">source: reports/&lt;YYYY-MM&gt;/portfolio_analysis_report.md</text>
    <text x="22" y="98" class="small cyan">Position Action Table</text>
    <line x1="22" y1="50" x2="966" y2="50" class="line"/>
    <line x1="22" y1="114" x2="966" y2="114" class="line"/>
    <text x="22" y="144" class="small muted">Action</text>
    <text x="138" y="144" class="small muted">Ticker</text>
    <text x="246" y="144" class="small muted">Size</text>
    <text x="420" y="144" class="small muted">Trigger</text>
    <text x="660" y="144" class="small muted">Rationale</text>
    <text x="22" y="184" class="small yellow">Trim</text>
    <text x="138" y="184" class="small text">488080</text>
    <text x="246" y="184" class="small text">13-14%</text>
    <text x="420" y="184" class="small text">weight &gt; 15%</text>
    <text x="660" y="184" class="small text">rule limit breached</text>
    <text x="22" y="224" class="small yellow">Trim</text>
    <text x="138" y="224" class="small text">233740</text>
    <text x="246" y="224" class="small text">below 40%</text>
    <text x="420" y="224" class="small text">theme exposure</text>
    <text x="660" y="224" class="small text">leveraged concentration</text>
    <text x="22" y="264" class="small red">Exit</text>
    <text x="138" y="264" class="small text">038530</text>
    <text x="246" y="264" class="small text">small lot</text>
    <text x="420" y="264" class="small text">no thesis</text>
    <text x="660" y="264" class="small text">loss position with weak signal</text>
    <text x="22" y="304" class="small cyan">Hold</text>
    <text x="138" y="304" class="small text">005930</text>
    <text x="246" y="304" class="small text">current</text>
    <text x="420" y="304" class="small text">thesis intact</text>
    <text x="660" y="304" class="small text">core semiconductor exposure</text>
  </g>
</svg>
