<svg xmlns="http://www.w3.org/2000/svg" width="1120" height="560" viewBox="0 0 1120 560" role="img" aria-labelledby="title desc">
  <title id="title">kis-folio workflow</title>
  <desc id="desc">Local-first workflow from KIS OpenAPI account data through snapshot generation, LangGraph agents, reports, and local storage.</desc>
  <defs>
    <style>
      .bg { fill: #f7f8fb; }
      .panel { fill: #ffffff; stroke: #d8dee8; stroke-width: 1.2; rx: 8; }
      .node { fill: #ffffff; stroke: #8aa0bd; stroke-width: 1.5; rx: 8; }
      .node-accent { fill: #eef6ff; stroke: #4078c0; }
      .node-risk { fill: #fff5ed; stroke: #c96f2d; }
      .node-output { fill: #f1fbf5; stroke: #3f8f5c; }
      .text { font-family: Inter, ui-sans-serif, system-ui, -apple-system, BlinkMacSystemFont, "Segoe UI", sans-serif; fill: #182230; font-size: 16px; }
      .small { font-size: 13px; fill: #465568; }
      .label { font-size: 12px; fill: #627084; }
      .title { font-size: 26px; font-weight: 700; fill: #111827; }
      .section { font-size: 14px; font-weight: 700; fill: #334155; }
      .arrow { stroke: #65758b; stroke-width: 1.8; fill: none; marker-end: url(#arrowhead); }
      .dash { stroke-dasharray: 6 6; }
    </style>
    <marker id="arrowhead" markerWidth="10" markerHeight="8" refX="9" refY="4" orient="auto">
      <path d="M0,0 L10,4 L0,8 z" fill="#65758b" />
    </marker>
  </defs>

  <rect class="bg" x="0" y="0" width="1120" height="560" />
  <text class="title" x="48" y="54">kis-folio local-first portfolio analysis workflow</text>
  <text class="small" x="48" y="80">Read-only KIS account data, bounded LangGraph agents, local reports, and no order execution.</text>

  <rect class="panel" x="42" y="112" width="250" height="360" />
  <text class="section" x="66" y="144">Local inputs</text>
  <rect class="node" x="66" y="166" width="178" height="62" />
  <text class="text" x="86" y="192">.env</text>
  <text class="small" x="86" y="211">KIS + LLM keys</text>
  <rect class="node" x="66" y="260" width="178" height="62" />
  <text class="text" x="86" y="286">KIS OpenAPI</text>
  <text class="small" x="86" y="305">balance, cash, prices</text>
  <rect class="node" x="66" y="354" width="178" height="62" />
  <text class="text" x="86" y="380">Mock data</text>
  <text class="small" x="86" y="399">safe onboarding</text>

  <rect class="panel" x="336" y="112" width="250" height="360" />
  <text class="section" x="360" y="144">Fact layer</text>
  <rect class="node node-accent" x="360" y="166" width="178" height="62" />
  <text class="text" x="380" y="192">Snapshot</text>
  <text class="small" x="380" y="211">facts only markdown</text>
  <rect class="node" x="360" y="260" width="178" height="62" />
  <text class="text" x="380" y="286">Metrics</text>
  <text class="small" x="380" y="305">HHI, top weights</text>
  <rect class="node" x="360" y="354" width="178" height="62" />
  <text class="text" x="380" y="380">SQLite</text>
  <text class="small" x="380" y="399">local private state</text>

  <rect class="panel" x="630" y="112" width="250" height="360" />
  <text class="section" x="654" y="144">Agent workflow</text>
  <rect class="node node-accent" x="654" y="166" width="178" height="62" />
  <text class="text" x="674" y="192">LangGraph</text>
  <text class="small" x="674" y="211">fixed bounded graph</text>
  <rect class="node" x="654" y="250" width="178" height="62" />
  <text class="text" x="674" y="276">Analyst fan-out</text>
  <text class="small" x="674" y="295">risk, macro, trend...</text>
  <rect class="node node-risk" x="654" y="334" width="178" height="62" />
  <text class="text" x="674" y="360">Debate review</text>
  <text class="small" x="674" y="379">bull, bear, risk</text>
  <rect class="node" x="654" y="418" width="178" height="62" />
  <text class="text" x="674" y="444">Cost guards</text>
  <text class="small" x="674" y="463">calls, tokens, cost</text>

  <rect class="panel" x="924" y="112" width="154" height="360" />
  <text class="section" x="948" y="144">Outputs</text>
  <rect class="node node-output" x="948" y="166" width="96" height="62" />
  <text class="text" x="966" y="192">Report</text>
  <text class="small" x="966" y="211">markdown</text>
  <rect class="node node-output" x="948" y="260" width="96" height="62" />
  <text class="text" x="966" y="286">Visual</text>
  <text class="small" x="966" y="305">SVG</text>
  <rect class="node node-output" x="948" y="354" width="96" height="62" />
  <text class="text" x="966" y="380">Trace</text>
  <text class="small" x="966" y="399">audit trail</text>

  <path class="arrow" d="M244 197 H360" />
  <path class="arrow" d="M244 291 H360" />
  <path class="arrow" d="M538 197 H654" />
  <path class="arrow" d="M743 228 V250" />
  <path class="arrow" d="M743 312 V334" />
  <path class="arrow" d="M832 197 H948" />
  <path class="arrow" d="M832 281 H948" />
  <path class="arrow" d="M832 365 H948" />
  <path class="arrow dash" d="M449 416 V496 H996 V416" />

  <text class="label" x="48" y="520">All private data stays local unless you explicitly send a report prompt to your configured LLM provider.</text>
</svg>
